<?xml version="1.0" encoding="utf-8"?>
<!-- Generator: Adobe Illustrator 18.1.1, SVG Export Plug-In . SVG Version: 6.00 Build 0)  -->
<svg version="1.1" id="Layer_1" xmlns="http://www.w3.org/2000/svg" xmlns:xlink="http://www.w3.org/1999/xlink" x="0px" y="0px"
	 viewBox="0 0 69.785 23.613" enable-background="new 0 0 69.785 23.613" xml:space="preserve">
<path d="M50.628,11.298h17.683c0.81,0,1.474,0.663,1.474,1.474v7.368c0,0.81-0.663,1.474-1.474,1.474H50.628
	c-0.81,0-1.474-0.663-1.474-1.474v-7.368C49.155,11.961,49.818,11.298,50.628,11.298z"/>
<path d="M45.208,11.298v8.842c0,0.81-0.663,1.474-1.474,1.474H26.051c-0.81,0-1.474-0.663-1.474-1.474v-8.842H45.208z"/>
<path d="M1.474,11.298h17.683c0.81,0,1.474,0.663,1.474,1.474v7.368c0,0.81-0.663,1.474-1.474,1.474H1.474
	C0.663,21.613,0,20.95,0,20.139l0-7.368C0,11.961,0.663,11.298,1.474,11.298z"/>
<polygon fill="#FFFFFF" points="11.897,17.924 11.897,14.986 8.733,16.455 "/>
<polygon fill="#FFFFFF" points="57.888,17.924 57.888,14.986 61.052,16.455 "/>
<polygon fill="#FFFFFF" points="33.424,15.473 36.361,15.473 34.893,18.637 "/>
<path d="M45.208,10.315V1.474c0-0.81-0.663-1.474-1.474-1.474L26.051,0c-0.81,0-1.474,0.663-1.474,1.474v8.842H45.208z"/>
<polygon fill="#FFFFFF" points="33.424,6.14 36.361,6.14 34.893,2.976 "/>
</svg>
