<?xml version="1.0" encoding="utf-8"?>
<!-- Generator: Adobe Illustrator 18.1.1, SVG Export Plug-In . SVG Version: 6.00 Build 0)  -->
<svg version="1.1" id="Layer_1" xmlns="http://www.w3.org/2000/svg" xmlns:xlink="http://www.w3.org/1999/xlink" x="0px" y="0px"
	 viewBox="0 0 415.3829 230" enable-background="new 0 0 415.3829 230" xml:space="preserve">
<path fill="#FFFFFF" d="M153.8959,108.4937c18.9515-14.5268,21.5-53,6-73c-16.6109-21.4334-40-25.25-64.25-25.25s-56.25,0-56.25,0
	v51.7761c0,0,51.0314,0,61.9791,0s13.5751,4.817,13.5751,11.8234s-3.5032,11.6045-14.6699,11.6045c-11.1666,0-60.8843,0-60.8843,0
	v34.8134H0v104.7462c0,0,71.3959,0,95.6459,0s51.7249-5.1476,69.25-29.9437C179.5411,174.3424,185.4528,130.3329,153.8959,108.4937z
	 M53.3959,134.2613h43.5c20.4717,0,24.6665,8.3213,24.6665,20.8154c0,6.7227-3.1182,18-24,18H53.3959V134.2613z M153.4628,186.9839
	c-11.584,16.3896-29.9556,24.0234-57.8169,24.0234h-81.646v-76.7461h25.396v52.8157c0,0,34.1667,0,58.1667,0c28,0,38-17,38-32
	c0-22.6667-13.1667-34.8159-38.6667-34.8159c-14.2918,0-31.6234,0-43.5,0V99.4478h46.8843c13.8599,0,28.6699-6.7261,28.6699-25.6045
	c0-16.1699-10.3086-25.8237-27.5752-25.8237h-47.979V24.2437h42.25c22.7007,0,40.4321,3.3716,53.1841,19.8262
	c5.6431,7.2812,8.2905,19.7021,6.7446,31.6431c-1.2466,9.6309-5.0564,17.0727-10.1958,21.6694c0,0-4.8359,5.0118-18.5519,13.0067
	c18.1168,6.528,31.5395,15.7698,35.1617,35.3341C164.9549,161.744,159.559,178.3589,153.4628,186.9839z"/>
<path fill="#FFFFFF" d="M250.487,195.0636c17.5251,24.7961,45,29.9437,69.25,29.9437s95.6459,0,95.6459,0V120.2611h-39.3959V85.4477
	c0,0-49.7177,0-60.8843,0c-11.1666,0-14.6699-4.598-14.6699-11.6045s2.6274-11.8234,13.5751-11.8234s61.9791,0,61.9791,0V10.2437
	c0,0-32,0-56.25,0s-47.6391,3.8166-64.25,25.25c-15.5,20-12.9515,58.4732,6,73
	C229.9301,130.3329,235.8418,174.3424,250.487,195.0636z M361.9869,173.0767h-44.1665c-20.8818,0-24-11.2773-24-18
	c0-12.4941,4.1948-20.8154,24.6665-20.8154h43.5V173.0767z M253.3942,145.7232c3.6222-19.5643,17.0449-28.8062,35.1617-35.3341
	c-13.716-7.9949-18.5519-13.0067-18.5519-13.0067c-5.1394-4.5967-8.9492-12.0386-10.1958-21.6694
	c-1.5459-11.9409,1.1016-24.3618,6.7446-31.6431c12.752-16.4546,30.4834-19.8262,53.1841-19.8262h42.25v23.7759h-47.979
	c-17.2666,0-27.5752,9.6538-27.5752,25.8237c0,18.8784,14.8101,25.6045,28.6699,25.6045h46.8843v20.8133
	c-11.8766,0-29.2082,0-43.5,0c-25.5,0-38.6667,12.1492-38.6667,34.8159c0,15,10,32,38,32c24,0,58.1667,0,58.1667,0v-52.8157h25.396
	v76.7461h-81.646c-27.8613,0-46.2329-7.6338-57.8169-24.0234C255.8239,178.3589,250.428,161.744,253.3942,145.7232z"/>
<rect x="200.6914" y="0" fill="#FFFFFF" width="14" height="230"/>
</svg>
