<?xml version="1.0" encoding="utf-8"?>
<!-- Generator: Adobe Illustrator 18.1.1, SVG Export Plug-In . SVG Version: 6.00 Build 0)  -->
<svg version="1.1" id="Layer_1" xmlns="http://www.w3.org/2000/svg" xmlns:xlink="http://www.w3.org/1999/xlink" x="0px" y="0px"
	 viewBox="0 0 206.0284 130.8335" enable-background="new 0 0 206.0284 130.8335" xml:space="preserve">
<path fill="#010101" d="M203.8853,11.1924c0.4126-0.0342,0.7617-0.3193,0.8774-0.7168l1.2256-4.2031
	c0.0884-0.3022,0.0288-0.6279-0.1602-0.8799c-0.1885-0.252-0.4849-0.3999-0.7998-0.3999H172.979
	c-0.4663,0-0.8706,0.3223-0.9746,0.7764l-0.9805,4.2773c-0.0635,0.2773-0.0063,0.5684,0.1577,0.8008
	c0.1641,0.2319,0.4194,0.3833,0.7017,0.416c5.6851,0.6597,8.3633,1.5317,8.3633,6.6592c0,1.7827-0.3013,3.8931-0.8975,6.2798
	l-11.1357,45.9512L144.2603,5.6445c-0.1455-0.3916-0.5195-0.6519-0.9375-0.6519h-10.1855c-7.2212,0-12.3076-0.9287-18.2026-2.0054
	C107.269,1.5869,98.5811,0,82.5703,0C60.0469,0,48.2622,15.6494,48.2622,31.1084c0,13.4951,11.5278,24.0664,26.2441,24.0664
	c10.8247,0,19.9697-6.9761,19.9697-15.2334c0-3.1304-1.8774-6.7856-7.1689-6.7856c-4.4868,0-6.8726,2.5093-9.3994,5.166
	l-0.2026,0.2134c-2.4561,2.5903-4.835,4.7349-9.0879,4.7349c-6.4746,0-10.4971-5.6904-10.4971-14.8506
	c0-11.311,12.4863-20.8667,27.2666-20.8667c33.541,0,33.541,11.8423,33.541,16.8989c0,10.3062-12.7153,46.71-25.731,65.7998
	c-14.1865,20.7612-34.2866,33.1562-53.7681,33.1562c-20.8701,0-30.2119-14.2095-30.2119-28.2915
	c0-11.2949,6.5059-23.2993,18.5625-23.2993c7.0962,0,10.7949,4.0898,14.373,8.0464c3.165,3.4985,6.1538,6.8032,11.231,6.8032
	c3.4644,0,8.9609-2.5366,8.9609-9.3442c0-3.5103-2.6045-7.6748-6.7979-10.8691c-4.7788-3.6406-11.0029-5.6455-17.5249-5.6455
	C15.6348,60.8076,0,75.5474,0,96.6523c0,17.0137,12.3501,34.1812,39.9414,34.1812c32.9858,0,51.7437-22.0645,62.9829-38.6602
	c11.4517-16.8638,23.5093-49.9248,25.3477-65.1616l0.6401-0.1274l29.3271,77.3154c0.1475,0.3887,0.5195,0.6455,0.9351,0.6455
	h11.1938c0.4624,0,0.8647-0.3174,0.9727-0.7671l19.147-80.0088C193.1479,13.0474,196.1069,11.8379,203.8853,11.1924z"/>
</svg>
