<?xml version="1.0" encoding="utf-8"?>
<!-- Generator: Adobe Illustrator 18.1.1, SVG Export Plug-In . SVG Version: 6.00 Build 0)  -->
<svg version="1.1" id="Layer_1" xmlns="http://www.w3.org/2000/svg" xmlns:xlink="http://www.w3.org/1999/xlink" x="0px" y="0px"
	 viewBox="0 0 578.6361 244.2583" enable-background="new 0 0 578.6361 244.2583" xml:space="preserve">
<g>
	<path d="M203.8853,11.1924c0.4126-0.0342,0.7617-0.3193,0.8774-0.7168l1.2256-4.2031c0.0884-0.3022,0.0288-0.6279-0.1602-0.8799
		c-0.1885-0.252-0.4849-0.3999-0.7998-0.3999H172.979c-0.4663,0-0.8706,0.3223-0.9746,0.7764l-0.9805,4.2773
		c-0.0635,0.2773-0.0063,0.5684,0.1577,0.8008c0.1641,0.2319,0.4194,0.3833,0.7017,0.416c5.6851,0.6597,8.3633,1.5317,8.3633,6.6592
		c0,1.7827-0.3013,3.8931-0.8975,6.2798l-11.1357,45.9512L144.2603,5.6445c-0.1455-0.3916-0.5195-0.6519-0.9375-0.6519h-10.1855
		c-7.2212,0-12.3076-0.9287-18.2026-2.0054C107.269,1.5869,98.5811,0,82.5703,0C60.0469,0,48.2622,15.6494,48.2622,31.1084
		c0,13.4951,11.5278,24.0664,26.2441,24.0664c10.8247,0,19.9697-6.9761,19.9697-15.2334c0-3.1304-1.8774-6.7856-7.1689-6.7856
		c-4.4868,0-6.8726,2.5093-9.3994,5.166l-0.2026,0.2134c-2.4561,2.5903-4.835,4.7349-9.0879,4.7349
		c-6.4746,0-10.4971-5.6904-10.4971-14.8506c0-11.311,12.4863-20.8667,27.2666-20.8667c33.541,0,33.541,11.8423,33.541,16.8989
		c0,10.3062-12.7153,46.71-25.731,65.7998c-14.1865,20.7612-34.2866,33.1562-53.7681,33.1562
		c-20.8701,0-30.2119-14.2095-30.2119-28.2915c0-11.2949,6.5059-23.2993,18.5625-23.2993c7.0962,0,10.7949,4.0898,14.373,8.0464
		c3.165,3.4985,6.1538,6.8032,11.231,6.8032c3.4644,0,8.9609-2.5366,8.9609-9.3442c0-3.5103-2.6045-7.6748-6.7979-10.8691
		c-4.7788-3.6406-11.0029-5.6455-17.5249-5.6455C15.6348,60.8076,0,75.5474,0,96.6523c0,17.0137,12.3501,34.1812,39.9414,34.1812
		c32.9858,0,51.7437-22.0645,62.9829-38.6602c11.4517-16.8638,23.5093-49.9248,25.3477-65.1616l0.6401-0.1274l29.3271,77.3154
		c0.1475,0.3887,0.5195,0.6455,0.9351,0.6455h11.1938c0.4624,0,0.8647-0.3174,0.9727-0.7671l19.147-80.0088
		C193.1479,13.0474,196.1069,11.8379,203.8853,11.1924z"/>
	<path d="M221.2583,99.7495c-0.1597-0.2432-0.4175-0.4048-0.7061-0.4424c-3.0469-0.397-6.021-0.9883-6.021-3.4224
		c0-0.9834,0.2578-2.0015,0.5015-2.9629c0.0972-0.3862,0.1924-0.7651,0.2554-1.0864l12.2441-48.7305
		c0.0752-0.2988,0.0083-0.6157-0.1812-0.8584c-0.1895-0.2432-0.4805-0.3853-0.7886-0.3853h-4.0342
		c-0.2046,0-0.4043,0.063-0.5723,0.1802c-3.0703,2.1426-6.7002,4.1167-10.4878,5.7051c-3.5801,1.4575-7.0098,2.606-9.9189,3.3203
		c-0.3618,0.0889-0.6445,0.3721-0.7329,0.7344l-0.8247,3.3823c-0.0728,0.2998-0.0034,0.6162,0.188,0.8584
		c0.1919,0.2417,0.5161,0.375,0.793,0.3784l0.1499-0.001c2.5474,0,5.4717,0.4697,5.4717,4.1318
		c0,0.9736-0.1187,1.8823-0.3848,2.9453l-7.3003,29.2007c-1.3496,5.7368-2.9312,5.9297-7.625,6.5015
		c-0.4438,0.0542-0.915,0.1118-1.4165,0.1772c-0.4116,0.0542-0.7466,0.3564-0.8428,0.7603l-0.8281,3.4775
		c-0.0708,0.2974-0.002,0.6113,0.188,0.8511c0.1895,0.2402,0.4785,0.3804,0.7847,0.3804h30.2402
		c0.4463,0,0.8389-0.2959,0.9614-0.7251l1.0132-3.5464C221.4644,100.2935,221.4185,99.9927,221.2583,99.7495z"/>
	<path d="M223.4917,28.6753c6.0708,0,11.0098-3.9624,11.0098-8.833s-4.939-8.833-11.0098-8.833
		c-5.9678,0-11.0093,4.0449-11.0093,8.833C212.4824,24.7129,217.4214,28.6753,223.4917,28.6753z"/>
	<path d="M258.688,106.2529c12.8477,0,25.606-6.6021,31.7471-16.4287c0.292-0.4663,0.1523-1.0806-0.3125-1.375l-4.6973-2.9717
		c-0.4214-0.2671-0.9775-0.1802-1.2998,0.2012c-4.6353,5.5059-13.6006,11.3574-21.0854,11.3574
		c-8.1724,0-12.6733-5.2739-12.6733-14.8496c0-6.0269,2.5601-14.4292,6.3706-20.9082c2.6343-4.4785,8.2026-11.9917,15.9043-11.9917
		c4.1357,0,5.0972,3.1045,5.9976,7.4595c0.5854,3.3745,3.7651,7.0068,9.3647,7.0068c5.2729,0,9.728-4.2217,9.728-9.2183
		c0-6.437-5.5654-13.9536-21.25-13.9536c-20.9082,0-44.293,18.231-44.293,42.6294
		C232.189,97.6387,242.0952,106.2529,258.688,106.2529z"/>
	<path d="M300.0054,91.79c-1.4199,5.8047-4.0879,7.0801-9.1709,7.6133c-0.4141,0.0435-0.7578,0.3389-0.8633,0.7412l-0.9023,3.4473
		c-0.0781,0.2998-0.0127,0.6191,0.1758,0.8643c0.1895,0.2456,0.4824,0.3892,0.792,0.3892h30.0518
		c0.4609,0,0.8623-0.3154,0.9717-0.7632l0.8379-3.4365c0.0654-0.2681,0.0166-0.5513-0.1338-0.7827
		c-0.1504-0.231-0.3906-0.3901-0.6621-0.4385c-4.127-0.7383-5.7354-2.0181-5.7354-4.5645c0-0.4858,0.0732-0.8911,0.1689-1.4204
		l2.3916-9.8442l8.3223-5.7617l5.7617,12.2925c15.0029,31.7456,43.373,43.0103,63.1094,43.0103
		c20.6055,0,29.8281-8.7441,29.8281-17.4092c0-3.3384-2.4766-5.7612-5.8877-5.7612c-5.0215,0-6.8457,3.2803-8.959,7.0776
		l-0.0811,0.146c-0.2256,0.4053-0.4531,0.8149-0.6914,1.2261c-2.46,4.2754-5.5938,8.4492-14.335,8.4492
		c-10.6934,0-20.1045-5.2222-26.1133-9.6011c-16.4238-12.0425-24.9395-33.2407-29.1904-48.9033l15.874-14.0811
		c6.9023-6.1353,9.6367-6.6348,14.6875-7.1074c0.4082-0.0381,0.752-0.3213,0.8672-0.7148l0.9697-3.3149
		c0.0879-0.3022,0.0293-0.6284-0.1602-0.8804c-0.1885-0.252-0.4854-0.4004-0.7998-0.4004h-34.3418
		c-0.4717,0-0.8789,0.3291-0.9775,0.7905l-0.7676,3.5796c-0.0557,0.2598-0.0059,0.5317,0.1396,0.7549
		c0.1445,0.2227,0.373,0.3789,0.6328,0.4336c2.0898,0.437,6.9492,1.8062,6.9492,5.0669c0,1.9194-1.8154,4.2656-5.25,6.7852
		l-16.5137,12.1611l16.4561-65.3237c0.0752-0.2988,0.0088-0.6157-0.1807-0.8589s-0.4805-0.3853-0.7891-0.3853h-4.0332
		c-0.2051,0-0.4043,0.063-0.5723,0.1802c-3.0635,2.1392-6.6924,4.1128-10.5166,5.7163c-3.7549,1.6689-7.4482,2.7202-9.8848,3.3081
		c-0.3643,0.0879-0.6484,0.3716-0.7373,0.7354l-0.833,3.4165c-0.0723,0.2983-0.0039,0.6133,0.1855,0.8545
		s0.4795,0.3823,0.7861,0.3823h0.2617c2.793,0,5.3779,0.4961,5.3779,4.0967c0,1.1035-0.1465,2.2314-0.4053,3.019L300.0054,91.79z"/>
	<path d="M318.8901,122.5825c0.4385-0.04,0.7988-0.3613,0.8877-0.792l0.8779-4.2173c0.0615-0.2944-0.0127-0.6011-0.2031-0.8345
		c-0.1895-0.2334-0.4746-0.3691-0.7754-0.3691h-15.2852c-8.2754,0-15.665-0.5547-22.8276-1.0928
		c-7.1021-0.5327-14.4453-1.0835-22.6162-1.0835c-22.9712,0-38.4053,14.1997-38.4053,35.3335
		c0,14.5479,10.5288,24.708,25.604,24.708c13.2979,0,24.9629-10.5283,24.9629-22.5312c0-4.4688-2.7817-9.2188-7.9365-9.2188
		c-7.0674,0-11.126,6.4365-11.9058,12.4189c-0.0723,0.5635-0.1338,1.1396-0.1948,1.7168c-0.561,5.292-1.3896,9.0371-6.9746,9.0371
		c-3.7998,0-7.2437-1.9775-9.6973-5.5684c-2.104-3.0811-3.3599-7.1729-3.3599-10.9463c0-15.9697,11.1348-25.9766,29.0518-26.1162
		h5.1284c5.812,0,21.25,0,21.25,8.7051c0,0.7559,0,1.4092-0.2759,2.2451l-19.9497,78.4023
		c-2.9409,11.3818-5.873,18.4365-11.394,18.4365c-3.3291,0-4.9736-2.2139-6.5664-4.3584c-1.6797-2.2627-3.416-4.6025-7.1309-4.6025
		c-6.564,0-11.1382,6.3418-11.1382,12.0332c0,6.2031,6.9453,10.3701,17.2822,10.3701c19.9004,0,32.4209-10.9707,38.2778-33.5391
		l20.6099-79.1221C308.0767,124.1626,313.0581,123.1157,318.8901,122.5825z"/>
	<path d="M345.9556,138.4585c-23.1533,0-41.9902,19.0654-41.9902,42.501c0,15.5908,8.9199,23.1699,27.2686,23.1699
		c16.8594,0,41.3486-15.6094,41.3486-40.0684C372.5825,148.269,362.3794,138.4585,345.9556,138.4585z M331.4888,196.5776
		c-6.834,0-10.7529-4.0117-10.7529-11.0078c0-22.7852,12.4814-38.6631,23.6826-38.6631c8.1367,0,11.7783,6.2363,11.7783,12.417
		C356.1968,183.6313,341.8472,196.5776,331.4888,196.5776z"/>
	<path d="M454.2554,214.6274c-6.334,0-8.1475,4.4912-9.9023,8.8369c-1.4629,3.6201-2.8438,7.0391-6.8672,7.0391
		c-4.5557,0-7.1689-3.5-7.1689-9.6016c0-4.9307,1.168-9.8662,2.2969-14.6426c0.2207-0.9287,0.4395-1.8516,0.6436-2.7539
		l10.6299-43.7998c0.585-2.4541,0.8945-4.9316,0.8945-7.166c0-9.1924-5.8799-14.4648-16.1309-14.4648
		c-6.4688,0-13.7422,2.5-20.4814,7.04l1.4541-5.3965c0.0811-0.2998,0.0176-0.6211-0.1719-0.8682s-0.4824-0.3916-0.7939-0.3916
		h-4.0117c-0.2051,0-0.4043,0.0625-0.5723,0.1797c-3.0693,2.1426-6.6992,4.1162-10.4873,5.7051
		c-3.5781,1.457-7.0078,2.6055-9.9199,3.3203c-0.3623,0.0889-0.6445,0.3711-0.7334,0.7344l-0.833,3.418
		c-0.0723,0.2979-0.0039,0.6123,0.1855,0.8545c0.1895,0.2412,0.4795,0.3818,0.7861,0.3818h0.2637c2.792,0,5.376,0.4961,5.376,4.0957
		c0,0.9678-0.1182,1.876-0.3828,2.9434l-7.6846,30.4805c-1.3711,5.709-3,5.915-7.835,6.5254l-1.209,0.1553
		c-0.4111,0.0537-0.7461,0.3564-0.8418,0.7598l-0.8291,3.4795c-0.0713,0.2969-0.002,0.6113,0.1875,0.8516
		c0.1904,0.2402,0.4795,0.3799,0.7852,0.3799h30.2402c0.4463,0,0.8389-0.2959,0.9619-0.7256l1.0137-3.5479
		c0.0791-0.2793,0.0332-0.5801-0.126-0.8232c-0.1602-0.2432-0.418-0.4053-0.7061-0.4424c-3.0469-0.3984-6.0205-0.9902-6.0205-3.4219
		c0-0.9277,0.2256-1.8174,0.46-2.7441c0.1113-0.4434,0.2227-0.8906,0.2959-1.2979l8.46-35.0039
		c3.4277-2.5693,8.7188-5.6328,14.4668-5.6328c1.3896,0,8.3193,0.3584,8.3193,7.4258c0,0.8613-0.1152,1.7422-0.3789,2.9238
		l-10.5029,42.7891c-0.3467,1.4883-0.749,2.9863-1.1045,4.3096c-1.0771,4.0117-2.0947,7.7998-2.0947,11.9365
		c0,13.1768,12.2168,19.0742,24.3242,19.0742c17.0938,0,23.2988-9.5693,23.2988-16.002
		C461.8091,216.7905,457.8931,214.6274,454.2554,214.6274z"/>
	<path d="M510.5327,185.8081c0.1475-0.251,0.1787-0.5527,0.0859-0.8281c-0.0938-0.2754-0.3018-0.4971-0.5713-0.6064l-6.3711-2.5869
		c-0.4424-0.1797-0.9512-0.0215-1.2129,0.3799c-4.2393,6.4893-12.8848,13.3857-20.5586,13.3857
		c-3.7949,0-7.2236-1.3955-9.6553-3.9307c-3.0625-3.1943-4.5488-8.0771-4.2969-14.1143c0.1279-2.7266,0.6445-5.6572,1.5352-8.71
		h44.9336c1.5879,0,1.9648-3.0469,2.0479-4.8672c0.3115-7.3799-1.8789-13.9072-6.167-18.3799
		c-4.5107-4.7061-11.1367-7.0918-19.6924-7.0918c-21.3887,0-40.207,18.1738-41.0938,39.6934
		c-0.2344,6.9873,2.0283,13.1475,6.543,17.8154c5.0898,5.2637,12.7227,8.1621,21.4932,8.1621
		C492.8003,204.1294,505.3374,194.6323,510.5327,185.8081z M497.0103,160.2202h-23.8086
		c4.7646-8.7871,10.9697-13.8262,17.0244-13.8262c2.9277,0,5.3447,0.9004,6.9893,2.6045c1.7471,1.8115,2.6055,4.542,2.4863,7.8594
		C499.5728,158.6489,498.3149,160.2202,497.0103,160.2202z"/>
	<path d="M578.5835,159.6743l-6.6562-19.7344c-0.1611-0.4795-0.6572-0.7637-1.1523-0.6592l-4.2148,0.8828
		c-0.2695,0.0566-0.5049,0.2217-0.6484,0.457l-1.1807,1.9336c-2.7734-1.001-9.8594-3.3281-15.7471-3.3281
		c-13.8701,0-23.9375,9.6914-23.9375,23.0439c0,11.2861,8.207,16.4854,16.1475,21.5156
		c7.2285,4.5801,14.7031,9.3164,14.7031,18.6797c0,12.9814-11.7158,20.7393-23.042,20.7393c-9.7334,0-19.5869-5.584-19.5869-16.2578
		c0-6.1182,3.7812-14.5928,10.8818-14.5928c2.4805,0,4.9912,1.1426,4.9912,3.3271c0,0.7441-0.3975,1.4902-0.8584,2.3555
		c-0.6436,1.209-1.4443,2.7139-1.4443,4.8125c0,4.7266,3.999,6.4033,7.4238,6.4033c5.4561,0,9.7305-4.4424,9.7305-10.1143
		c0-6.7207-5.7295-13.9551-18.3076-13.9551c-12.9062,0-22.2744,8.9912-22.2744,21.3799c0,15.6562,15.1963,22.7871,29.3164,22.7871
		c19.1133,0,39.6846-10.6963,39.6846-34.1816c0-10.2637-6.7266-14.9873-13.8906-20.0186c-1.3223-0.9277-2.6895-1.8887-4.0234-2.8896
		c-0.5566-0.4277-1.1445-0.8652-1.7549-1.3193l-0.1533-0.1143c-4.7627-3.5391-11.2861-8.3857-11.2861-14.7012
		c0-6.1729,3.7324-9.8574,9.9854-9.8574c9.8809,0,17.4502,10.7617,20.2471,15.3887c0.2207,0.3662,0.6543,0.5518,1.0684,0.459
		l5.2451-1.1455c0.2783-0.0605,0.5176-0.2363,0.6572-0.4834C578.647,160.2388,578.6743,159.9438,578.5835,159.6743z"/>
</g>
</svg>
