<?xml version="1.0" encoding="utf-8"?>
<!-- Generator: Adobe Illustrator 18.1.1, SVG Export Plug-In . SVG Version: 6.00 Build 0)  -->
<svg version="1.1" id="Layer_1" xmlns="http://www.w3.org/2000/svg" xmlns:xlink="http://www.w3.org/1999/xlink" x="0px" y="0px"
	 viewBox="110.6 261.3 391.2 269.3" enable-background="new 110.6 261.3 391.2 269.3" xml:space="preserve">
<path d="M118.2,380.8l156.4-117.3c5.6-3.8,13.2-2.3,17,3.3c1.3,1.9,2,4,2.1,6.3v61.8c170.5,0,202.8,118.4,208.1,181.6
	c0.3,6.8-4.9,12.5-11.6,12.8c-3.7,0.2-7.2-1.3-9.7-4c-75.6-88.2-186.8-68-186.8-68V519c-0.3,6.8-6.1,12-12.8,11.6
	c-2.2-0.1-4.4-0.8-6.3-2.1L118.2,411.2c-8.4-6.3-10.1-18.2-3.8-26.6C115.5,383.1,116.8,381.8,118.2,380.8z"/>
</svg>
