<?xml version="1.0" encoding="utf-8"?>
<!-- Generator: Adobe Illustrator 18.1.1, SVG Export Plug-In . SVG Version: 6.00 Build 0)  -->
<svg version="1.1" id="Layer_1" xmlns="http://www.w3.org/2000/svg" xmlns:xlink="http://www.w3.org/1999/xlink" x="0px" y="0px"
	 viewBox="0 0 111.127 35.8765" enable-background="new 0 0 111.127 35.8765" xml:space="preserve">
<g>
	<path fill="none" stroke="#FFFFFF" stroke-width="1.3438" stroke-linejoin="round" stroke-miterlimit="10" d="M37.7168,35.2046
		V17.7022V0.6719h0.086l17.4199,14.4575l17.418-14.4575h0.0332v34.5327H37.7168z"/>
	
		<line fill="none" stroke="#FFFFFF" stroke-width="1.3438" stroke-linejoin="round" stroke-miterlimit="10" x1="80.7471" y1="0.7759" x2="94.2862" y2="27.3492"/>
	
		<line fill="none" stroke="#FFFFFF" stroke-width="1.3438" stroke-linejoin="round" stroke-miterlimit="10" x1="80.7471" y1="35.107" x2="100.1719" y2="12.127"/>
	
		<line fill="none" stroke="#FFFFFF" stroke-width="1.3438" stroke-linejoin="round" stroke-miterlimit="10" x1="29.6836" y1="0.6807" x2="5.4991" y2="31.8423"/>
	
		<line fill="none" stroke="#FFFFFF" stroke-width="1.3438" stroke-linejoin="round" stroke-miterlimit="10" x1="12.6934" y1="22.5738" x2="0.6719" y2="0.6807"/>
	
		<line fill="none" stroke="#FFFFFF" stroke-width="1.3438" stroke-linejoin="round" stroke-miterlimit="10" x1="72.6739" y1="35.2046" x2="47.4434" y2="15.1558"/>
	
		<line fill="none" stroke="#FFFFFF" stroke-width="1.3438" stroke-linejoin="round" stroke-miterlimit="10" x1="20.3282" y1="27.6284" x2="29.6836" y2="0.6807"/>
	
		<line fill="none" stroke="#FFFFFF" stroke-width="1.3438" stroke-linejoin="round" stroke-miterlimit="10" x1="12.6934" y1="22.5738" x2="0.6719" y2="14.6133"/>
	
		<line fill="none" stroke="#FFFFFF" stroke-width="1.3438" stroke-linejoin="round" stroke-miterlimit="10" x1="29.6836" y1="0.6807" x2="0.6719" y2="14.6133"/>
	
		<line fill="none" stroke="#FFFFFF" stroke-width="1.3438" stroke-linejoin="round" stroke-miterlimit="10" x1="47.4434" y1="15.1558" x2="37.7168" y2="35.2046"/>
	
		<line fill="none" stroke="#FFFFFF" stroke-width="1.3438" stroke-linejoin="round" stroke-miterlimit="10" x1="37.7168" y1="23.7222" x2="47.4434" y2="15.1558"/>
	
		<line fill="none" stroke="#FFFFFF" stroke-width="1.3438" stroke-linejoin="round" stroke-miterlimit="10" x1="47.4434" y1="15.1558" x2="37.7168" y2="0.6719"/>
	
		<line fill="none" stroke="#FFFFFF" stroke-width="1.3438" stroke-linejoin="round" stroke-miterlimit="10" x1="90.7149" y1="29.4058" x2="110.4551" y2="18.0401"/>
	
		<line fill="none" stroke="#FFFFFF" stroke-width="1.3438" stroke-linejoin="round" stroke-miterlimit="10" x1="90.7149" y1="29.4058" x2="80.7471" y2="35.2046"/>
	
		<line fill="none" stroke="#FFFFFF" stroke-width="1.3438" stroke-linejoin="round" stroke-miterlimit="10" x1="110.0254" y1="17.8858" x2="80.7471" y2="0.7759"/>
	<path fill="none" stroke="#FFFFFF" stroke-width="1.3438" stroke-linejoin="round" stroke-miterlimit="10" d="M80.7471,0.7759
		h11.5332c11.2783,0,18.1748,7.312,18.1748,17.167v0.0972c0,9.852-6.8965,17.1645-18.1748,17.1645H80.7471V0.7759z"/>
	<path fill="none" stroke="#FFFFFF" stroke-width="1.3438" stroke-linejoin="round" stroke-miterlimit="10" d="M72.7246,35.2046"/>
	
		<line fill="none" stroke="#FFFFFF" stroke-width="1.3438" stroke-linejoin="round" stroke-miterlimit="10" x1="37.7168" y1="23.7222" x2="72.7246" y2="35.2046"/>
	<path fill="none" stroke="#FFFFFF" stroke-width="1.3438" stroke-linejoin="round" stroke-miterlimit="10" d="M29.6836,0.6807
		H0.6719v18.3525c0,10.7535,5.9434,16.0542,14.5059,16.0542c8.664,0,14.5058-5.3525,14.5058-16.0542V0.6807z"/>
	
		<line fill="none" stroke="#FFFFFF" stroke-width="1.3438" stroke-linejoin="round" stroke-miterlimit="10" x1="28.9346" y1="25.0816" x2="5.4991" y2="31.8423"/>
	
		<line fill="none" stroke="#FFFFFF" stroke-width="1.3438" stroke-linejoin="round" stroke-miterlimit="10" x1="62.5821" y1="9.0181" x2="72.6739" y2="35.2046"/>
	
		<line fill="none" stroke="#FFFFFF" stroke-width="1.3438" stroke-linejoin="round" stroke-miterlimit="10" x1="25.6953" y1="31.1792" x2="20.3282" y2="27.6284"/>
	<path fill="none" stroke="#FFFFFF" stroke-width="1.3438" stroke-linejoin="round" stroke-miterlimit="10" d="M72.7246,35.2046"/>
	
		<line fill="none" stroke="#FFFFFF" stroke-width="1.3438" stroke-linejoin="round" stroke-miterlimit="10" x1="80.7471" y1="19.1055" x2="100.1719" y2="12.127"/>
	
		<line fill="none" stroke="#FFFFFF" stroke-width="1.3438" stroke-linejoin="round" stroke-miterlimit="10" x1="100.1719" y1="12.127" x2="100.7481" y2="2.4307"/>
	<polyline fill="none" stroke="#FFFFFF" stroke-width="1.3438" stroke-linejoin="round" stroke-miterlimit="10" points="
		72.6739,0.6719 55.1953,29.4644 55.1953,15.1294 	"/>
</g>
</svg>
