<?xml version="1.0" encoding="utf-8"?>
<!-- Generator: Adobe Illustrator 18.1.1, SVG Export Plug-In . SVG Version: 6.00 Build 0)  -->
<svg version="1.1" id="Layer_1" xmlns="http://www.w3.org/2000/svg" xmlns:xlink="http://www.w3.org/1999/xlink" x="0px" y="0px"
	 viewBox="0 0 648.6174 223.4355" enable-background="new 0 0 648.6174 223.4355" xml:space="preserve">
<path fill="#FFFFFF" d="M0.409,6.1582c-1.2754-2.8633,0.5313-5.1846,4.0362-5.1846h159.7016c3.5049,0,7.3799,2.3213,8.6558,5.1846
	l18.8623,42.3447c1.2749,2.8633-0.5313,5.1855-4.0366,5.1855H27.9266c-3.5044,0-7.3799-2.3222-8.6553-5.1855L0.409,6.1582z"/>
<path fill="#FFFFFF" d="M29.2064,64.125c-1.2754-2.8633,0.5312-5.1856,4.0361-5.1856h159.7017c3.5049,0,7.3804,2.3223,8.6558,5.1856
	l18.8623,42.3447c1.2749,2.8633-0.5313,5.1855-4.0367,5.1855H56.724c-3.5044,0-7.3794-2.3222-8.6553-5.1855L29.2064,64.125z"/>
<path fill="#FFFFFF" d="M57.808,122.2832c-1.2754-2.8633,0.5312-5.1846,4.0361-5.1846h159.7017
	c3.5048,0,7.3798,2.3213,8.6557,5.1846l18.8618,42.3447c1.2754,2.8642-0.5312,5.1855-4.0361,5.1855H85.3255
	c-3.5044,0-7.3798-2.3213-8.6552-5.1855L57.808,122.2832z"/>
<path fill="#FFFFFF" d="M648.2084,5.1855C649.4837,2.3222,647.6771,0,644.1732,0H484.4701c-3.5039,0-7.3789,2.3222-8.6543,5.1855
	l-18.8633,42.3447c-1.2754,2.8633,0.5312,5.1846,4.0371,5.1846h159.7012c3.5058,0,7.3808-2.3213,8.6562-5.1846L648.2084,5.1855z"/>
<path fill="#FFFFFF" d="M619.4115,63.1523c1.2754-2.8633-0.5313-5.1846-4.0352-5.1846H455.6732
	c-3.5039,0-7.3789,2.3213-8.6543,5.1846l-18.8633,42.3447c-1.2754,2.8633,0.5313,5.1856,4.0371,5.1856h159.7012
	c3.5039,0,7.3789-2.3223,8.6562-5.1856L619.4115,63.1523z"/>
<path fill="#FFFFFF" d="M590.8099,121.3105c1.2754-2.8633-0.5312-5.1855-4.0351-5.1855H427.0716
	c-3.5039,0-7.3789,2.3222-8.6543,5.1855l-18.8632,42.3447c-1.2754,2.8643,0.5312,5.1856,4.0371,5.1856h159.7011
	c3.5039,0,7.3789-2.3213,8.6563-5.1856L590.8099,121.3105z"/>
<path fill="#FFFFFF" d="M196.7796,0.9082h109.7095c0,0,4.7217-0.5186,8.6123,6.2246c3.8897,6.7431-0.7783,13.7461-0.7783,13.7461
	L263.618,122.6787c0,0-3.2129,8.1689-11.5947,8.1689c-7.4395,0-11.3594-8.2988-11.3594-8.2988L188.7391,20.6191
	c0,0-4.6728-6.7422-1.8926-13.875C189.8294-0.9073,196.7796,0.9082,196.7796,0.9082z"/>
<path fill="#FFFFFF" d="M342.2806,1.2968h109.711c0,0,4.7207-0.5185,8.6113,6.2256c3.8906,6.7432-0.7793,13.7451-0.7793,13.7451
	l-50.7051,101.7998c0,0-3.2129,8.169-11.5937,8.169c-7.4395,0-11.3594-8.2988-11.3594-8.2988L334.2416,21.0087
	c0,0-4.6739-6.7431-1.8926-13.8759C335.3314-0.5186,342.2806,1.2968,342.2806,1.2968z"/>
<path fill="#FFFFFF" d="M379.3626,169.5634H269.6522c0,0-4.7217,0.5186-8.6113-6.2246c-3.8907-6.7431,0.7773-13.7461,0.7773-13.7461
	l50.7051-101.7998c0,0,3.2139-8.1689,11.5947-8.1689c7.44,0,11.3599,8.2988,11.3599,8.2988l51.9238,101.9297
	c0,0,4.6738,6.7422,1.8926,13.875C386.3119,171.3789,379.3626,169.5634,379.3626,169.5634z"/>
<g>
	<path fill="#FFFFFF" d="M90.243,185.165h4.0156l10.5816,33.0947l10.373-33.0947h5.2701l10.247,33.251l10.7075-33.251h4.0152
		l-12.0459,37.8525h-5.2696l-10.289-33.2519l-10.2896,33.2519h-5.27L90.243,185.165z"/>
	<path fill="#FFFFFF" d="M149.0086,185.165h29.7378v4.1826h-25.6391v12.0772h24.6357v4.1826h-24.6357v13.2275h25.8066v4.1826
		h-29.9053V185.165z"/>
	<path fill="#FFFFFF" d="M198.5306,207.0185l-17.3579-21.8535h5.521l13.8862,17.5664l13.8863-17.5664h5.521l-17.358,21.8535v15.999
		h-4.0986V207.0185z"/>
	<path fill="#FFFFFF" d="M224.0443,185.165h4.0991v33.6699h23.5059v4.1826h-27.605V185.165z"/>
	<path fill="#FFFFFF" d="M269.9276,185.165h5.1025l17.9854,37.8525h-4.6426l-3.7646-8h-24.2588l-3.7647,8h-4.6426L269.9276,185.165z
		 M272.4793,189.3476l-10.164,21.4873h20.3271L272.4793,189.3476z"/>
	<path fill="#FFFFFF" d="M296.6961,185.165h6.1065l27.73,33.251v-33.251h4.0996v37.8525h-6.1074l-27.73-33.2519v33.2519h-4.0987
		V185.165z"/>
	<path fill="#FFFFFF" d="M341.4505,185.165h24.4668c10.1641,0,12.9239,3.9736,12.9239,18.9258
		c0,13.9072-2.7598,18.9267-13.0489,18.9267h-24.3418V185.165z M374.7435,202.2607c0-10.9268-2.7187-12.9131-7.7383-12.9131h-21.457
		v29.4873h20.7871c4.9785,0,8.4082-1.3594,8.4082-12.7051V202.2607z"/>
	<path fill="#FFFFFF" d="M404.0209,198.915c0-9.5674,2.5937-14.1689,10.791-14.1689h15.6855c7.4453,0,9.4942,4.3398,9.4942,9.4111
		v3.2412h-3.5977v-1.7256c0-6.4297-3.1777-6.7441-6.9434-6.7441h-14.2207c-3.9316,0-7.1093,1.4638-7.1093,8.0517v14.2207
		c0,6.5879,3.1777,8.0518,7.1093,8.0518h14.3477c5.5195,0,7.1094-1.4639,7.1094-6.5879v-2.3525h3.8476v2.5615
		c0,6.8496-1.7558,10.5615-10.2461,10.5615h-15.4765c-8.1973,0-10.791-4.6006-10.791-14.1689V198.915z"/>
	<path fill="#FFFFFF" d="M445.638,198.915c0-9.5674,2.5938-14.1689,10.7911-14.1689h17.4414c8.1972,0,10.791,4.6015,10.791,14.1689
		v10.3516c0,9.5683-2.5938,14.1689-10.791,14.1689h-17.4414c-8.1973,0-10.7911-4.6006-10.7911-14.1689V198.915z M480.5638,196.9804
		c0-6.5879-3.1797-8.0517-7.1113-8.0517H456.847c-3.9316,0-7.1094,1.4638-7.1094,8.0517v14.2207
		c0,6.5879,3.1778,8.0518,7.1094,8.0518h16.6055c3.9316,0,7.1113-1.4639,7.1113-8.0518V196.9804z"/>
	<path fill="#FFFFFF" d="M490.9349,185.165h24.2188c8.7402,0,10.1212,3.6074,10.1212,10.7178v3.084
		c0,5.333-2.4258,6.7968-5.5625,7.163v0.1045c4.1816,0.9414,5.1855,3.6602,5.1855,7.1104v9.6728h-3.8477v-8.3134
		c0-5.9082-2.3007-6.6397-6.0234-6.6397h-19.9922v14.9531h-4.0996V185.165z M514.6927,203.8818
		c4.5587,0,6.4824-1.5166,6.4824-5.4902v-3.4502c0-4.2344-1.4628-5.5938-7.4863-5.5938h-18.6543v14.5342H514.6927z"/>
	<path fill="#FFFFFF" d="M531.7592,185.165h24.9277c5.5195,0,8.6583,1.4639,8.6583,10.2998c0,8.417-0.545,12.6514-9.4532,12.6514
		h-20.0351v14.9013h-4.0977V185.165z M561.2455,194.9414c0-4.4961-1.9648-5.5938-5.5215-5.5938h-19.8672v14.586h20.2031
		c3.2617,0,5.1855-1.4639,5.1855-5.3848V194.9414z"/>
</g>
</svg>
